<svg xmlns="http://www.w3.org/2000/svg" width="1440" height="520" viewBox="0 0 1440 520"><rect width="1440" height="520" fill="white"/><text x="28" y="32" font-family="Arial,sans-serif" font-size="23" fill="#111">SPU-HOODIE-082 · ZIP-FRONT HOODED SWEATSHIRT · M · CM</text><text x="28" y="57" font-family="Arial,sans-serif" font-size="14" fill="#555">CAD preview of grey-zip-hoodie.dxf / prototype pattern V1</text><polygon points="28.0,459.6 28.0,146.0 60.0,139.6 85.6,120.4 92.0,82.0 143.2,107.6 181.6,158.8 200.8,203.6 200.8,459.6" fill="#e9ecef" stroke="#111" stroke-width="2"/><text x="114.4" y="270.8" text-anchor="middle" font-family="Arial,sans-serif" font-size="13">FRONT-L x1</text><polygon points="239.2,459.6 239.2,203.6 258.4,158.8 296.8,107.6 348.0,82.0 354.4,120.4 380.0,139.6 412.0,146.0 412.0,459.6" fill="#e9ecef" stroke="#111" stroke-width="2"/><text x="325.6" y="270.8" text-anchor="middle" font-family="Arial,sans-serif" font-size="13">FRONT-R x1</text><polygon points="476.0,459.6 476.0,203.6 495.2,158.8 533.6,107.6 584.8,82.0 604.0,94.8 648.8,101.2 693.6,94.8 712.8,82.0 764.0,107.6 802.4,158.8 821.6,203.6 821.6,459.6" fill="#e9ecef" stroke="#111" stroke-width="2"/><text x="648.8" y="270.8" text-anchor="middle" font-family="Arial,sans-serif" font-size="13">BACK x1</text><polygon points="885.6,190.8 904.8,146.0 936.8,101.2 988.0,82.0 1039.2,101.2 1071.2,146.0 1090.4,190.8 1045.6,440.4 930.4,440.4" fill="#e9ecef" stroke="#111" stroke-width="2"/><text x="988.0" y="261.20000000000005" text-anchor="middle" font-family="Arial,sans-serif" font-size="13">SLEEVE x2</text><polygon points="1154.4,325.2 1167.2,222.8 1186.4,120.4 1224.8,82.0 1288.8,82.0 1340.0,120.4 1365.6,203.6 1333.6,280.4 1288.8,325.2" fill="#e9ecef" stroke="#111" stroke-width="2"/><text x="1260.0" y="203.60000000000002" text-anchor="middle" font-family="Arial,sans-serif" font-size="13">HOOD x2</text><polygon points="1154.4,363.6 1256.8,363.6 1276.0,408.4 1244.0,459.6 1154.4,459.6" fill="#e9ecef" stroke="#111" stroke-width="2"/><text x="1215.2" y="411.6" text-anchor="middle" font-family="Arial,sans-serif" font-size="13">POCKET x2</text><text x="28" y="500" font-family="Arial,sans-serif" font-size="13" fill="#555">Prototype-authored CAD source. SVG, DXF and PRJ use identical geometry; demo RUL preserves the size rules.</text></svg>