0
SECTION
2
HEADER
9
$ACADVER
1
AC1009
9
$INSUNITS
70
5
0
ENDSEC
0
SECTION
2
ENTITIES
0
POLYLINE
8
FRONT-L
66
1
70
1
0
VERTEX
8
FRONT-L
10
0
20
59
30
0
0
VERTEX
8
FRONT-L
10
0
20
10
30
0
0
VERTEX
8
FRONT-L
10
5
20
9
30
0
0
VERTEX
8
FRONT-L
10
9
20
6
30
0
0
VERTEX
8
FRONT-L
10
10
20
0
30
0
0
VERTEX
8
FRONT-L
10
18
20
4
30
0
0
VERTEX
8
FRONT-L
10
24
20
12
30
0
0
VERTEX
8
FRONT-L
10
27
20
19
30
0
0
VERTEX
8
FRONT-L
10
27
20
59
30
0
0
SEQEND
0
TEXT
8
FRONT-L
10
5
20
10
40
2
1
FRONT-L M QTY 1
0
POLYLINE
8
FRONT-R
66
1
70
1
0
VERTEX
8
FRONT-R
10
33
20
59
30
0
0
VERTEX
8
FRONT-R
10
33
20
19
30
0
0
VERTEX
8
FRONT-R
10
36
20
12
30
0
0
VERTEX
8
FRONT-R
10
42
20
4
30
0
0
VERTEX
8
FRONT-R
10
50
20
0
30
0
0
VERTEX
8
FRONT-R
10
51
20
6
30
0
0
VERTEX
8
FRONT-R
10
55
20
9
30
0
0
VERTEX
8
FRONT-R
10
60
20
10
30
0
0
VERTEX
8
FRONT-R
10
60
20
59
30
0
0
SEQEND
0
TEXT
8
FRONT-R
10
38
20
10
40
2
1
FRONT-R M QTY 1
0
POLYLINE
8
BACK
66
1
70
1
0
VERTEX
8
BACK
10
70
20
59
30
0
0
VERTEX
8
BACK
10
70
20
19
30
0
0
VERTEX
8
BACK
10
73
20
12
30
0
0
VERTEX
8
BACK
10
79
20
4
30
0
0
VERTEX
8
BACK
10
87
20
0
30
0
0
VERTEX
8
BACK
10
90
20
2
30
0
0
VERTEX
8
BACK
10
97
20
3
30
0
0
VERTEX
8
BACK
10
104
20
2
30
0
0
VERTEX
8
BACK
10
107
20
0
30
0
0
VERTEX
8
BACK
10
115
20
4
30
0
0
VERTEX
8
BACK
10
121
20
12
30
0
0
VERTEX
8
BACK
10
124
20
19
30
0
0
VERTEX
8
BACK
10
124
20
59
30
0
0
SEQEND
0
TEXT
8
BACK
10
75
20
10
40
2
1
BACK M QTY 1
0
POLYLINE
8
SLEEVE
66
1
70
1
0
VERTEX
8
SLEEVE
10
134
20
17
30
0
0
VERTEX
8
SLEEVE
10
137
20
10
30
0
0
VERTEX
8
SLEEVE
10
142
20
3
30
0
0
VERTEX
8
SLEEVE
10
150
20
0
30
0
0
VERTEX
8
SLEEVE
10
158
20
3
30
0
0
VERTEX
8
SLEEVE
10
163
20
10
30
0
0
VERTEX
8
SLEEVE
10
166
20
17
30
0
0
VERTEX
8
SLEEVE
10
159
20
56
30
0
0
VERTEX
8
SLEEVE
10
141
20
56
30
0
0
SEQEND
0
TEXT
8
SLEEVE
10
139
20
10
40
2
1
SLEEVE M QTY 2
0
POLYLINE
8
HOOD
66
1
70
1
0
VERTEX
8
HOOD
10
176
20
38
30
0
0
VERTEX
8
HOOD
10
178
20
22
30
0
0
VERTEX
8
HOOD
10
181
20
6
30
0
0
VERTEX
8
HOOD
10
187
20
0
30
0
0
VERTEX
8
HOOD
10
197
20
0
30
0
0
VERTEX
8
HOOD
10
205
20
6
30
0
0
VERTEX
8
HOOD
10
209
20
19
30
0
0
VERTEX
8
HOOD
10
204
20
31
30
0
0
VERTEX
8
HOOD
10
197
20
38
30
0
0
SEQEND
0
TEXT
8
HOOD
10
181
20
10
40
2
1
HOOD M QTY 2
0
POLYLINE
8
POCKET
66
1
70
1
0
VERTEX
8
POCKET
10
176
20
44
30
0
0
VERTEX
8
POCKET
10
192
20
44
30
0
0
VERTEX
8
POCKET
10
195
20
51
30
0
0
VERTEX
8
POCKET
10
190
20
59
30
0
0
VERTEX
8
POCKET
10
176
20
59
30
0
0
SEQEND
0
TEXT
8
POCKET
10
181
20
54
40
2
1
POCKET M QTY 2
0
ENDSEC
0
EOF
